<svg width="30" height="37" viewBox="0 0 30 37" fill="none" xmlns="http://www.w3.org/2000/svg">
<path d="M0 31.2057V5.79427C0 2.86891 2.33726 0.5 5.22353 0.5H24.3765C27.2627 0.5 29.6 2.86891 29.6 5.79427V11.6026C29.6 13.7542 27.8797 15.5031 25.7516 15.5031H20.7216V13.2508C20.7216 13.0441 20.8052 12.8586 20.9359 12.7208C21.0719 12.5883 21.2549 12.5035 21.4588 12.5035C22.6824 12.5035 23.681 11.4966 23.681 10.2512V8.75144C23.681 7.51133 22.6876 6.49912 21.4588 6.49912H8.14118C6.91765 6.49912 5.91895 7.50604 5.91895 8.75144V10.2512C5.91895 10.8713 6.16994 11.433 6.56732 11.8411C6.96471 12.2439 7.5085 12.4929 8.1098 12.4982C8.5281 12.5035 8.87843 12.8215 8.87843 13.2508V23.7492C8.87843 23.9559 8.79477 24.1414 8.66405 24.2792C8.5281 24.4117 8.3451 24.4965 8.14118 24.4965C6.91765 24.4965 5.91895 25.5034 5.91895 26.7488V28.2486C5.91895 29.4887 6.91242 30.5009 8.14118 30.5009H21.4588C22.6824 30.5009 23.681 29.494 23.681 28.2486V26.7488C23.681 26.1287 23.4301 25.567 23.0327 25.1589C22.6353 24.7561 22.0915 24.5071 21.4902 24.5018C21.0719 24.4965 20.7216 24.1785 20.7216 23.7492V21.4969H25.7516C27.8745 21.4969 29.6 23.2405 29.6 25.3974V31.2057C29.6 34.1311 27.2627 36.5 24.3765 36.5H5.22353C2.33726 36.5 0 34.1311 0 31.2057Z" fill="url(#paint0_linear_2003_111)" stroke="white" stroke-width="0.5" stroke-miterlimit="10"/>
<defs>
<linearGradient id="paint0_linear_2003_111" x1="-2.33725" y1="28.5241" x2="32.161" y2="8.87248" gradientUnits="userSpaceOnUse">
<stop stop-color="white"/>
<stop offset="1" stop-color="white" stop-opacity="0.8"/>
</linearGradient>
</defs>
</svg>
